<?xml version="1.0" encoding="utf-8" ?><svg xmlns="http://www.w3.org/2000/svg" xmlns:xlink="http://www.w3.org/1999/xlink" width="626" height="626" viewBox="0 0 626 626"><path fill="#C7DBC2" d="M286.408 221.249C306.894 220.836 327.469 221.315 347.967 221.265C355.732 221.246 363.828 221.634 371.562 221.098C371.541 224.566 371.485 228.035 371.656 231.5C378.654 232.041 385.887 231.705 392.918 231.677C392.901 235.222 392.905 238.744 393.093 242.285L403.591 242.322L403.636 252.97C403.728 256.427 403.771 259.885 403.764 263.344C407.173 263.758 410.759 263.452 414.198 263.486C421.293 263.48 428.463 263.283 435.549 263.554L435.741 263.679C439.272 263.557 442.849 263.879 446.363 263.525C446.359 267.109 446.158 270.843 446.444 274.408C449.938 274.556 453.43 274.517 456.926 274.499C456.902 277.808 456.508 281.673 457.137 284.913C460.652 285.016 464.173 285.178 467.687 284.981C467.67 288.501 467.531 292.072 467.666 295.587C471.15 295.756 474.624 295.648 478.108 295.568C478.035 302.174 477.323 310.547 478.324 316.954C481.896 317.038 485.494 317.22 489.063 317.019C488.595 326.026 488.804 335.102 488.818 344.12C488.831 352.881 488.661 361.708 489.056 370.46L478.359 370.538C478.313 377.579 477.924 384.605 478.146 391.649C474.734 391.621 471.282 391.624 467.874 391.798C467.716 395.238 467.674 398.682 467.747 402.125C464.203 402.063 460.65 402.397 457.105 402.484C456.888 406.042 456.828 409.708 456.997 413.27C453.469 413.273 449.935 413.316 446.407 413.271C446.275 416.732 446.233 420.196 446.282 423.659L425.081 423.732C424.941 427.216 424.881 430.813 425.184 434.287C420.872 433.961 416.268 434.394 411.919 434.417C402.024 434.433 392.128 434.511 382.234 434.651C382.035 438.103 382.069 441.557 382.071 445.013C375.944 444.43 369.506 444.807 363.335 444.812L329.975 444.814C297.681 444.813 265.317 444.383 233.03 445.002C233.192 441.512 232.988 437.927 232.932 434.43L168.964 434.46C169.037 430.942 169.008 427.423 168.877 423.907C165.365 423.637 161.827 423.738 158.307 423.756C158.421 420.262 158.319 416.738 158.3 413.24C154.833 413.069 151.369 413.117 147.9 413.144C148.162 407.925 148.006 402.625 148.016 397.397C148.027 392.017 148.199 386.575 147.903 381.204C151.36 381.197 154.862 381.305 158.304 380.97C158.385 377.455 158.481 373.796 158.108 370.299C161.748 370.241 165.387 370.21 169.027 370.207C169.157 348.922 169.161 327.637 169.039 306.351C172.469 306.537 176.016 306.316 179.462 306.315C179.346 299.323 180.081 292.126 179.488 285.179C183.043 285.128 186.597 285.052 190.151 284.95L190.151 274.408C193.708 274.433 197.266 274.436 200.824 274.415L200.815 263.71C204.377 263.787 208.052 264.023 211.597 263.652C212.033 260.307 211.805 256.562 211.793 253.185C218.766 252.895 225.878 253.578 232.82 252.897C239.94 252.881 247.067 252.84 254.187 252.93C257.696 252.794 261.216 252.884 264.726 252.918C264.724 249.488 264.436 245.771 264.923 242.386C272.029 241.873 279.156 242.481 286.272 242.276C286.343 238.653 286.388 235.028 286.407 231.404C286.492 228.019 286.492 224.633 286.408 221.249Z"/><path fill="#F5B649" d="M286.408 221.249C306.894 220.836 327.469 221.315 347.967 221.265C355.732 221.246 363.828 221.634 371.562 221.098C371.541 224.566 371.485 228.035 371.656 231.5C378.654 232.041 385.887 231.705 392.918 231.677C392.901 235.222 392.905 238.744 393.093 242.285L403.591 242.322L403.636 252.97C403.728 256.427 403.771 259.885 403.764 263.344L403.655 263.561C403.804 267.219 403.794 270.874 403.793 274.534L403.761 284.946C407.289 284.93 410.799 284.896 414.321 285.159L414.314 295.337C414.706 306.067 414.582 316.916 414.171 327.647C410.704 327.66 407.238 327.773 403.778 327.986C403.787 331.441 403.691 334.896 403.489 338.345C400.043 338.358 396.584 338.435 393.14 338.339C393.115 341.896 393.193 345.489 392.968 349.039C385.9 349.039 378.832 349.093 371.765 349.202C371.723 352.709 371.755 356.239 371.585 359.741C357.446 360.126 343.219 359.741 329.067 359.823C321.922 359.618 314.71 359.836 307.558 359.858C300.531 359.567 293.418 359.769 286.381 359.774L286.258 349.305C279.181 349.185 272.103 349.132 265.025 349.145L265.022 338.482C261.446 338.423 257.869 338.401 254.292 338.416C254.319 334.851 254.308 331.287 254.259 327.722L243.638 327.802C240.077 327.57 236.5 327.651 232.933 327.668C232.591 313.471 232.929 299.211 232.841 285.005L243.689 284.908C243.409 277.884 243.629 270.763 243.626 263.729C247.217 263.741 250.801 263.784 254.387 263.549C254.384 260.003 254.349 256.473 254.187 252.93C257.696 252.794 261.216 252.884 264.726 252.918C264.724 249.488 264.436 245.771 264.923 242.386C272.029 241.873 279.156 242.481 286.272 242.276C286.343 238.653 286.388 235.028 286.407 231.404C286.492 228.019 286.492 224.633 286.408 221.249Z"/><path fill="#F6AA08" d="M414.314 295.337C414.706 306.067 414.582 316.916 414.171 327.647C410.704 327.66 407.238 327.773 403.778 327.986C403.787 331.441 403.691 334.896 403.489 338.345C400.043 338.358 396.584 338.435 393.14 338.339C393.115 341.896 393.193 345.489 392.968 349.039C385.9 349.039 378.832 349.093 371.765 349.202C371.723 352.709 371.755 356.239 371.585 359.741C357.446 360.126 343.219 359.741 329.067 359.823L329.145 349.008C332.709 348.99 336.27 348.842 339.836 348.842C339.26 338.716 339.82 327.192 339.606 316.844C343.145 316.96 346.718 316.815 350.237 317.241L350.3 306.138C357.35 306.665 364.413 306.326 371.469 306.608C371.303 302.96 371.626 299.194 371.771 295.541C376.937 295.702 412.713 296.158 413.868 295.711C414.049 295.64 414.165 295.461 414.314 295.337Z"/><path fill="#F6AA08" d="M264.726 252.918C264.724 249.488 264.436 245.771 264.923 242.386C265.34 245.848 265.137 249.632 264.988 253.117L265.029 263.487C264.997 270.663 264.838 277.878 265.122 285.048C261.539 285.079 257.956 285.087 254.374 285.07L254.344 327.572L265.027 327.74L265.039 338.416C272.044 338.366 279.138 338.561 286.13 338.271L286.244 349.268C293.313 348.919 300.434 349.203 307.516 349.002C307.584 352.537 307.95 356.367 307.558 359.858C300.531 359.567 293.418 359.769 286.381 359.774L286.258 349.305C279.181 349.185 272.103 349.132 265.025 349.145L265.022 338.482C261.446 338.423 257.869 338.401 254.292 338.416C254.319 334.851 254.308 331.287 254.259 327.722L243.638 327.802C240.077 327.57 236.5 327.651 232.933 327.668C232.591 313.471 232.929 299.211 232.841 285.005L243.689 284.908C243.409 277.884 243.629 270.763 243.626 263.729C247.217 263.741 250.801 263.784 254.387 263.549C254.384 260.003 254.349 256.473 254.187 252.93C257.696 252.794 261.216 252.884 264.726 252.918Z"/><path fill="#D97E0E" d="M232.841 285.005L243.689 284.908C243.527 299.229 243.298 313.48 243.638 327.802C240.077 327.57 236.5 327.651 232.933 327.668C232.591 313.471 232.929 299.211 232.841 285.005Z"/><path fill="#D97E0E" d="M264.726 252.918C264.724 249.488 264.436 245.771 264.923 242.386C265.34 245.848 265.137 249.632 264.988 253.117L265.029 263.487C261.474 263.507 257.919 263.566 254.365 263.663L254.299 284.958C250.767 284.947 247.219 285.002 243.689 284.908C243.409 277.884 243.629 270.763 243.626 263.729C247.217 263.741 250.801 263.784 254.387 263.549C254.384 260.003 254.349 256.473 254.187 252.93C257.696 252.794 261.216 252.884 264.726 252.918Z"/><path fill="#F6AA08" d="M286.408 221.249C306.894 220.836 327.469 221.315 347.967 221.265C355.732 221.246 363.828 221.634 371.562 221.098C371.541 224.566 371.485 228.035 371.656 231.5C364.705 231.23 357.706 231.41 350.749 231.426C350.552 235.08 350.426 238.738 350.372 242.398L315.092 242.369C305.608 242.282 295.88 241.92 286.423 242.576C286.414 246.077 286.291 249.625 286.432 253.12C279.309 253.278 272.101 253.647 264.988 253.117C265.137 249.632 265.34 245.848 264.923 242.386C272.029 241.873 279.156 242.481 286.272 242.276C286.343 238.653 286.388 235.028 286.407 231.404C286.492 228.019 286.492 224.633 286.408 221.249Z"/><path fill="#212020" d="M286.408 221.249C306.894 220.836 327.469 221.315 347.967 221.265C355.732 221.246 363.828 221.634 371.562 221.098C371.541 224.566 371.485 228.035 371.656 231.5C364.705 231.23 357.706 231.41 350.749 231.426L286.407 231.404C286.492 228.019 286.492 224.633 286.408 221.249Z"/><path fill="#212020" d="M371.656 231.5C378.654 232.041 385.887 231.705 392.918 231.677C392.901 235.222 392.905 238.744 393.093 242.285L403.591 242.322L403.636 252.97C400.377 252.488 396.627 252.833 393.302 252.849C393.274 249.328 393.224 245.808 393.152 242.288C388.392 242.32 383.648 242.127 378.883 242.257L371.761 242.235C371.768 238.658 371.829 235.074 371.656 231.5Z"/><path fill="#F6AA08" d="M378.883 242.257C383.648 242.127 388.392 242.32 393.152 242.288C393.224 245.808 393.274 249.328 393.302 252.849C396.627 252.833 400.377 252.488 403.636 252.97C403.728 256.427 403.771 259.885 403.764 263.344L403.655 263.561C400.114 263.506 396.523 263.735 392.981 263.848L393.107 252.964C389.524 253.104 385.934 253.029 382.349 252.998C382.303 249.616 382.683 246.021 382.183 242.681C381.198 242.163 379.977 242.274 378.883 242.257Z"/><path fill="#F7F6F6" d="M310.853 252.925C313.406 252.835 315.992 253.026 318.545 253.127L318.192 263.77C314.717 263.738 311.241 263.777 307.768 263.885L307.778 274.515C304.197 274.497 300.617 274.452 297.037 274.38C297.089 277.926 296.934 281.499 296.861 285.046L293.972 285.011C291.39 285.075 288.807 285.123 286.223 285.153C286.377 277.976 286.176 270.765 286.061 263.587C293.182 263.943 300.48 263.632 307.618 263.634C307.485 260.394 306.993 256.575 307.736 253.423C308.525 252.898 309.889 252.994 310.853 252.925Z"/><path fill="#F7F6F6" d="M211.561 274.419C218.717 274.654 225.827 274.575 232.983 274.504C232.875 278.003 232.828 281.504 232.841 285.005C232.929 299.211 232.591 313.471 232.933 327.668L232.981 338.411C236.518 338.289 240.089 338.387 243.629 338.397L243.734 349.197L254.258 349.006C254.229 352.592 254.323 356.188 254.363 359.774L264.944 359.771C264.923 363.318 264.988 366.87 265.012 370.417C272.133 370.325 279.256 370.496 286.382 370.39C286.328 373.912 286.385 377.443 286.394 380.966L318.41 381.227L318.493 391.872C343.321 391.539 368.202 391.704 393.033 391.838L393.038 381.148L414.463 381.1L414.383 370.48C421.527 370.518 428.671 370.493 435.815 370.405C435.755 366.863 435.761 363.32 435.832 359.778L446.377 359.792C446.423 352.681 446.385 345.57 446.266 338.461L457.268 338.259L457.197 327.765L467.739 327.754L467.716 359.786L457.004 359.735C457.208 363.313 457.186 366.902 457.211 370.485C453.669 370.475 450.063 370.634 446.54 370.244L446.498 381.122C442.875 381.022 439.215 381.156 435.589 381.189L435.805 391.806C428.693 391.694 421.565 391.782 414.451 391.775L414.512 402.288C403.818 402.785 393.068 402.573 382.366 402.496L382.375 413.019C364.607 412.711 346.749 413.267 328.968 413.225L328.95 423.871C324.248 423.444 319.416 423.64 314.695 423.678L295.765 423.736L232.885 423.692C232.901 420.112 232.988 416.532 233.147 412.955L179.722 413.255C179.5 409.673 179.512 406.083 179.486 402.496L169.005 402.531C168.503 395.385 168.723 388.144 168.758 380.983C172.326 381.186 175.881 381.083 179.45 381.007L179.533 370.393C183.135 370.522 186.754 370.316 190.355 370.195C189.679 361.999 190.097 353.662 190.102 345.442C190.109 332.39 190.015 319.348 190.396 306.3L200.965 306.376C200.883 299.204 200.843 292.032 200.845 284.86C204.392 285.071 207.983 284.967 211.536 284.975L211.561 274.419Z"/><path fill="#212020" d="M158.3 413.24L168.738 413.26L168.742 423.843C177.619 423.501 186.565 423.724 195.449 423.724C207.9 423.633 220.351 423.639 232.801 423.741C232.751 427.327 232.745 430.912 232.782 434.498L326.439 434.583C345.092 434.559 363.807 434.908 382.453 434.449L382.654 423.727L410.202 423.625C415.126 423.614 420.171 423.416 425.081 423.732C424.941 427.216 424.881 430.813 425.184 434.287C420.872 433.961 416.268 434.394 411.919 434.417C402.024 434.433 392.128 434.511 382.234 434.651C382.035 438.103 382.069 441.557 382.071 445.013C375.944 444.43 369.506 444.807 363.335 444.812L329.975 444.814C297.681 444.813 265.317 444.383 233.03 445.002C233.192 441.512 232.988 437.927 232.932 434.43L168.964 434.46C169.037 430.942 169.008 427.423 168.877 423.907C165.365 423.637 161.827 423.738 158.307 423.756C158.421 420.262 158.319 416.738 158.3 413.24Z"/><path fill="#D97E0E" d="M243.638 327.802L254.259 327.722C254.308 331.287 254.319 334.851 254.292 338.416C257.869 338.401 261.446 338.423 265.022 338.482L265.025 349.145C272.103 349.132 279.181 349.185 286.258 349.305L286.381 359.774C293.418 359.769 300.531 359.567 307.558 359.858C314.71 359.836 321.922 359.618 329.067 359.823C343.219 359.741 357.446 360.126 371.585 359.741L371.772 370.459C362.456 369.611 352.778 370.333 343.413 370.343C324.402 370.206 305.389 370.169 286.377 370.231L286.406 359.845C279.284 359.527 272.077 359.618 264.949 359.691C264.908 356.167 264.999 352.63 265.026 349.104C261.476 349.018 257.925 348.964 254.374 348.944C254.37 348.899 254.367 348.854 254.363 348.809C254.053 345.358 254.191 341.933 254.286 338.476C250.741 338.384 247.196 338.316 243.651 338.273C243.731 334.783 243.727 331.292 243.638 327.802Z"/><path fill="#D97E0E" d="M403.764 263.344C407.173 263.758 410.759 263.452 414.198 263.486L414.461 274.371C417.962 274.374 421.472 274.433 424.971 274.369L424.949 306.932C424.946 313.876 424.788 320.869 425.16 327.804C421.502 327.642 417.865 327.622 414.204 327.653L414.246 338.29C410.657 338.357 407.068 338.376 403.48 338.346C403.557 341.843 403.561 345.363 403.763 348.854L392.968 349.039C393.193 345.489 393.115 341.896 393.14 338.339C396.584 338.435 400.043 338.358 403.489 338.345C403.691 334.896 403.787 331.441 403.778 327.986C407.238 327.773 410.704 327.66 414.171 327.647C414.582 316.916 414.706 306.067 414.314 295.337L414.321 285.159C410.799 284.896 407.289 284.93 403.761 284.946L403.793 274.534C403.794 270.874 403.804 267.219 403.655 263.561L403.764 263.344Z"/><path fill="#F6AA08" d="M403.793 274.534C407.226 273.956 410.958 274.231 414.435 274.299C414.431 277.908 414.539 281.557 414.321 285.159C410.799 284.896 407.289 284.93 403.761 284.946L403.793 274.534Z"/><path fill="#212020" d="M478.324 316.954C481.896 317.038 485.494 317.22 489.063 317.019C488.595 326.026 488.804 335.102 488.818 344.12C488.831 352.881 488.661 361.708 489.056 370.46L478.359 370.538C478.313 377.579 477.924 384.605 478.146 391.649C474.734 391.621 471.282 391.624 467.874 391.798C467.716 395.238 467.674 398.682 467.747 402.125C464.203 402.063 460.65 402.397 457.105 402.484C457.74 399.205 457.289 395.132 457.276 391.773L467.73 391.73L467.764 370.492L478.457 370.485C478.584 359.569 478.637 348.651 478.615 337.734C478.624 330.87 478.959 323.789 478.324 316.954Z"/><path fill="#212020" d="M169.039 306.351C172.469 306.537 176.016 306.316 179.462 306.315L179.391 370.263C175.843 370.366 172.293 370.396 168.744 370.353L168.736 380.924C165.264 380.932 161.773 380.868 158.304 380.97C158.385 377.455 158.481 373.796 158.108 370.299C161.748 370.241 165.387 370.21 169.027 370.207C169.157 348.922 169.161 327.637 169.039 306.351Z"/><path fill="#212020" d="M200.815 263.71C204.377 263.787 208.052 264.023 211.597 263.652C211.429 267.193 211.483 270.741 211.495 274.286C207.949 274.373 204.299 274.14 200.773 274.375L200.756 284.84C197.247 284.86 193.734 284.845 190.226 284.904C190.23 292.021 190.311 299.148 190.224 306.264L179.462 306.315C179.346 299.323 180.081 292.126 179.488 285.179C183.043 285.128 186.597 285.052 190.151 284.95L190.151 274.408C193.708 274.433 197.266 274.436 200.824 274.415L200.815 263.71Z"/><path fill="#212020" d="M147.903 381.204C151.36 381.197 154.862 381.305 158.304 380.97L158.266 402.085C158.266 405.779 158.109 409.556 158.3 413.24C154.833 413.069 151.369 413.117 147.9 413.144C148.162 407.925 148.006 402.625 148.016 397.397C148.027 392.017 148.199 386.575 147.903 381.204Z"/><path fill="#D97E0E" d="M371.765 349.202C378.832 349.093 385.9 349.039 392.968 349.039C392.927 352.632 392.919 356.209 393.038 359.8C385.887 359.725 378.736 359.705 371.585 359.741C371.755 356.239 371.723 352.709 371.765 349.202Z"/><path fill="#212020" d="M425.271 413.256L446.407 413.271C446.275 416.732 446.233 420.196 446.282 423.659L425.081 423.732C425.303 420.264 425.231 416.734 425.271 413.256Z"/><path fill="#212020" d="M467.666 295.587C471.15 295.756 474.624 295.648 478.108 295.568C478.035 302.174 477.323 310.547 478.324 316.954L467.711 316.97C467.759 309.862 467.948 302.687 467.666 295.587Z"/><path fill="#212020" d="M211.793 253.185C218.766 252.895 225.878 253.578 232.82 252.897C232.644 256.432 232.755 259.949 232.69 263.484C227.323 263.458 216.465 262.854 211.597 263.652C212.033 260.307 211.805 256.562 211.793 253.185Z"/><path fill="#212020" d="M435.741 263.679C439.272 263.557 442.849 263.879 446.363 263.525C446.359 267.109 446.158 270.843 446.444 274.408C442.903 274.136 439.225 274.276 435.669 274.262C435.619 270.737 435.705 267.204 435.741 263.679Z"/><path fill="#212020" d="M446.658 402.533L457.105 402.484C456.888 406.042 456.828 409.708 456.997 413.27C453.469 413.273 449.935 413.316 446.407 413.271C446.663 409.705 446.617 406.107 446.658 402.533Z"/><path fill="#212020" d="M457.137 284.913C460.652 285.016 464.173 285.178 467.687 284.981C467.67 288.501 467.531 292.072 467.666 295.587C464.222 295.399 460.716 295.516 457.264 295.517C457.284 292.002 457.453 288.415 457.137 284.913Z"/><path fill="#212020" d="M446.444 274.408C449.938 274.556 453.43 274.517 456.926 274.499C456.902 277.808 456.508 281.673 457.137 284.913C453.594 284.839 450.049 284.853 446.506 284.954C446.536 281.442 446.634 277.916 446.444 274.408Z"/><path fill="#212020" d="M265.032 231.595C272.116 231.878 279.312 231.475 286.407 231.404C286.388 235.028 286.343 238.653 286.272 242.276C279.156 242.481 272.029 241.873 264.923 242.386C264.436 245.771 264.724 249.488 264.726 252.918C261.216 252.884 257.696 252.794 254.187 252.93C247.067 252.84 239.94 252.881 232.82 252.897C232.605 249.381 232.796 245.825 232.877 242.305L264.976 242.13C265.107 238.62 265.126 235.107 265.032 231.595Z"/><path fill="#212020" d="M403.636 252.97C408.714 253.404 413.962 253.159 419.062 253.139C424.564 253.117 430.14 253.27 435.633 253.029C435.625 256.516 435.747 260.077 435.549 263.554C428.463 263.283 421.293 263.48 414.198 263.486C410.759 263.452 407.173 263.758 403.764 263.344C403.771 259.885 403.728 256.427 403.636 252.97Z"/></svg>